# xmcd CD database file
#
# Track frame offsets:
#	150
#	12832
#	33177
#	45979
#	58258
#	64604
#	68228
#	78320
#	91894
#	104289
#	116881
#	129310
#	142932
#	157994
#	171226
#
# Disc length: 2519 seconds
#
# Revision: 0
# Processed by: cddbd v1.5.2PL0 Copyright (c) Steve Scherf et al.
# Submitted via: CDex 1.70beta2
#
DISCID=bc09d50f
DTITLE=Tai Luc - Jukebox
DYEAR=2007
DGENRE=Country
TTITLE0=I saw the light w Thoo Thuu thing bee laa
TTITLE1=Pale blue eyes
TTITLE2=Pistol Packin Mama
TTITLE3=Take me like I am
TTITLE4=Walk dont run
TTITLE5=La Boheme
TTITLE6=Julie la Rousse
TTITLE7=Le temps des cerises
TTITLE8=La fille de Londres
TTITLE9=Tu voulais (grand pere)
TTITLE10=I dont care
TTITLE11=Run run run
TTITLE12=Sunday morning
TTITLE13=Femme fatale
TTITLE14=Perfect day
EXTD=YEAR: 2007
EXTT0=
EXTT1=
EXTT2=
EXTT3=
EXTT4=
EXTT5=
EXTT6=
EXTT7=
EXTT8=
EXTT9=
EXTT10=
EXTT11=
EXTT12=
EXTT13=
EXTT14=
PLAYORDER=
